<svg xmlns="http://www.w3.org/2000/svg" viewBox="0 0 512 512" role="img" aria-label="静读经藏">
  <defs>
    <linearGradient id="paper" x1="128" y1="76" x2="412" y2="438" gradientUnits="userSpaceOnUse">
      <stop offset="0" stop-color="#fffdf5" />
      <stop offset="1" stop-color="#edf4e8" />
    </linearGradient>
    <linearGradient id="cover" x1="120" y1="80" x2="376" y2="432" gradientUnits="userSpaceOnUse">
      <stop offset="0" stop-color="#4f6f54" />
      <stop offset="1" stop-color="#253b2d" />
    </linearGradient>
  </defs>
  <rect width="512" height="512" rx="112" fill="#f3f6ee" />
  <circle cx="256" cy="256" r="194" fill="#dbe8d2" opacity=".72" />
  <path d="M154 112h190c34 0 62 28 62 62v260H174c-38 0-70-31-70-70V162c0-28 23-50 50-50Z" fill="url(#cover)" />
  <path d="M154 112c-27 0-50 22-50 50v202c0 39 32 70 70 70h214c-17-17-26-38-26-64V150c0-27 22-48 48-48H164c-3 0-7 0-10 1Z" fill="#46694f" opacity=".38" />
  <path d="M172 148h190c17 0 30 14 30 30v218H179c-23 0-42-19-42-42V183c0-19 15-35 35-35Z" fill="url(#paper)" />
  <text x="256" y="286" text-anchor="middle" fill="#4f6f54" font-family="Songti SC, STSong, serif" font-size="132" font-weight="700">静</text>
  <path d="M206 326h100" fill="none" stroke="#9b7336" stroke-width="18" stroke-linecap="round" />
  <path d="M136 356c0 22 18 40 40 40h216v48H176c-48 0-88-39-88-88h48Z" fill="#f9f6eb" />
  <path d="M176 396h214" fill="none" stroke="#d8decf" stroke-width="16" stroke-linecap="round" />
  <path d="M118 356h76" fill="none" stroke="#9b7336" stroke-width="18" stroke-linecap="round" />
  <path d="M392 102c16 0 30 13 30 30v284c0 13-10 24-24 24s-24-11-24-24V132c0-17 9-30 18-30Z" fill="#253b2d" opacity=".22" />
</svg>
